<svg id="Layer_1" data-name="Layer 1" xmlns="http://www.w3.org/2000/svg" xmlns:xlink="http://www.w3.org/1999/xlink" viewBox="0 0 3530.06 1443.02"><defs><style>.cls-1{mask:url(#mask);}.cls-2{mix-blend-mode:multiply;fill:url(#linear-gradient);}.cls-3{mask:url(#mask-2);}.cls-4{opacity:0.55;fill:url(#linear-gradient-2);}.cls-5{fill:#ffac40;}.cls-6{opacity:0.6;}.cls-7{fill:#fff;}.cls-8{fill:#fff2e8;}.cls-9{fill:#ff1d73;}.cls-10{fill:#390075;}.cls-11{opacity:0.3;}.cls-12{fill:#3f1c5e;}.cls-13{fill:#0af;}.cls-14{fill:#b6c7d8;}.cls-15{filter:url(#luminosity-noclip-2);}.cls-16{filter:url(#luminosity-noclip);}</style><filter id="luminosity-noclip" x="1158.77" y="-10192" width="1880" height="32766" filterUnits="userSpaceOnUse" color-interpolation-filters="sRGB"><feFlood flood-color="#fff" result="bg"/><feBlend in="SourceGraphic" in2="bg"/></filter><mask id="mask" x="1158.77" y="-10192" width="1880" height="32766" maskUnits="userSpaceOnUse"><g class="cls-16"/></mask><linearGradient id="linear-gradient" x1="1138.07" y1="2078.25" x2="2678.07" y2="2208.25" gradientUnits="userSpaceOnUse"><stop offset="0"/><stop offset="0.64" stop-color="#fff"/></linearGradient><filter id="luminosity-noclip-2" x="1158.77" y="1391.34" width="1880" height="1377.31" filterUnits="userSpaceOnUse" color-interpolation-filters="sRGB"><feFlood flood-color="#fff" result="bg"/><feBlend in="SourceGraphic" in2="bg"/></filter><mask id="mask-2" x="928.26" y="59.39" width="1880" height="1377.31" maskUnits="userSpaceOnUse"><g class="cls-15"><g transform="translate(-230.51 -1331.95)"><g class="cls-1"><polyline class="cls-2" points="2806.77 1828.72 1158.77 1391.34 1158.77 2768.66 3038.77 2768.66"/></g></g></g></mask><linearGradient id="linear-gradient-2" x1="907.56" y1="746.3" x2="2447.56" y2="876.3" gradientUnits="userSpaceOnUse"><stop offset="0" stop-color="#f1f2f2"/><stop offset="0.64" stop-color="#fff097"/></linearGradient></defs><g class="cls-3"><polyline class="cls-4" points="2576.26 496.77 928.26 59.39 928.26 1436.71 2808.26 1436.71"/></g><path class="cls-5" d="M684.15,2229.4l-88,154.55c-1.6.2-3.2.3-4.85.35C536.2,2386.8,439,2330.85,436.1,2246a120.74,120.74,0,0,1,3.9-34.15c4.15-16,23-22.7,36.7-13.5C531.4,2235.3,601.55,2243.8,684.15,2229.4Z" transform="translate(-230.51 -1331.95)"/><g class="cls-6"><path class="cls-7" d="M684.15,2229.4l-18.7,32.85c-74.55,10.1-138.25.2-188.75-33.95-13.7-9.2-32.55-2.5-36.7,13.5a129.62,129.62,0,0,0-2.95,15.1,116.84,116.84,0,0,1,2.95-45.1c4.15-16,23-22.7,36.7-13.5C531.4,2235.3,601.55,2243.8,684.15,2229.4Z" transform="translate(-230.51 -1331.95)"/></g><path class="cls-8" d="M1946.92,2102.11c-19.4-92.53-99.82-162.94-99.82-162.94s-16.25,57.71,0,97.08,37.5,43.75,37.5,43.75" transform="translate(-230.51 -1331.95)"/><path class="cls-5" d="M2327.1,2438.75C2302,2684,2128.65,2744.8,1914.65,2755h-.05c-20.2.95-40.8,1.5-61.65,1.65H633c-34.85,1-66.85.3-95.3-2.5-44.3-4.3-80.1-13.6-105-29.35a.69.69,0,0,0-.2-.15c-18.7-11.8-31.25-27.3-36.5-47.1,0-.05-.05-.1-.05-.15-.5-1.85-.95-3.8-1.3-5.75-7.3-25.55-4.75-47.25,4-65.6a101.21,101.21,0,0,1,14.55-22.2l.15-.2c2.65-3,5.45-6,8.4-8.7l.5-.5v0l.05-.05c25.3-23.9,61.2-39.3,90.15-48.65.65-.2,1.15-.4,1.5-.5s.4-.15.6-.2h0c.05,0,.05-.05.1-.05a365.21,365.21,0,0,1,46.6-11.6c69.65-430.45,535-648.35,915.85-392.75,28.1-24.35,57.5,13.15,57.5,13.15,7.5-55.65,30-114.35,30-114.35,35.6-98.15,109.4-128.8,133.1-109.4s66.3,156.25,66.3,156.25-3.1-172.2,32.5-160c30.5,10.45,50.6,32.9,50.6,32.9-26.65,30.85,8.75,140.85,8.75,140.85,129.45,14.75,189.65,80.25,223.1,137.5,17.6,30.15,27.85,58,36.9,75,26.25,49.4,86.85,58.1,155,78.1,13.85,4.05,24.4,9.3,32.4,15.05C2334.65,2408.2,2327.1,2438.75,2327.1,2438.75Z" transform="translate(-230.51 -1331.95)"/><g class="cls-6"><path class="cls-7" d="M1837.85,1965.1c-8.75-7.45-23.2-17.95-41.35-24.15-35.6-12.2-32.5,160-32.5,160s-42.5-136.85-66.3-156.25-97.5,11.25-133.1,109.4c0,0-22.5,58.7-30,114.35,0,0-29.4-37.5-57.5-13.15-380.85-255.6-846.2-37.7-915.85,392.75a365.21,365.21,0,0,0-46.6,11.6s0,0-.1,0h0c-.2.05-.4.15-.6.2s-.85.3-1.5.5c-40.15,12.95-93.6,37.6-113.8,80.35a82.22,82.22,0,0,0-6.55,19.8c-3.85-20.8-.9-38.85,6.55-54.5,20.2-42.75,73.65-67.4,113.8-80.35.65-.2,1.15-.4,1.5-.5s.4-.15.6-.2h0c.05,0,.05-.05.1-.05a365.21,365.21,0,0,1,46.6-11.6c69.65-430.45,535-648.35,915.85-392.75,28.1-24.35,57.5,13.15,57.5,13.15,7.5-55.65,30-114.35,30-114.35,35.6-98.15,109.4-128.8,133.1-109.4s66.3,156.25,66.3,156.25-3.1-172.2,32.5-160c30.5,10.45,50.6,32.9,50.6,32.9C1841.85,1945.2,1839,1954.35,1837.85,1965.1Z" transform="translate(-230.51 -1331.95)"/></g><path class="cls-8" d="M1518,2515.23s-130,73.1-43.37,241.44h174.34s124.15-67.73,54.07-160.53S1518,2515.23,1518,2515.23Z" transform="translate(-230.51 -1331.95)"/><path class="cls-8" d="M1764,2066.25s-7.71,82.08-106,67.92q-8.1-181.56,46.18-216.88" transform="translate(-230.51 -1331.95)"/><path class="cls-8" d="M558.35,2751.88c75.6-35,45.63-201.26-43.73-226.92,0,0-164.23,54.51-118.68,152.59S558.35,2751.88,558.35,2751.88Z" transform="translate(-230.51 -1331.95)"/><path class="cls-8" d="M2327.1,2438.75C2302,2684,2128.65,2744.8,1914.65,2755h-.05c-168.65-70-127.5-170-67.5-200s206.25-93.75,203.75-220,28.05-117.55,28.05-117.55l0,.05c17.6,30.15,27.85,58,36.9,75,26.25,49.4,86.85,58.1,155,78.1S2327.1,2438.75,2327.1,2438.75Z" transform="translate(-230.51 -1331.95)"/><path class="cls-9" d="M1477.1,2120.62c-51.66,68.55-41.66,203.31-39.16,393.49h96.66c-7.5-183.39,0-380.36,0-380.36" transform="translate(-230.51 -1331.95)"/><g class="cls-6"><path class="cls-7" d="M1464.6,2156.25s43.13-20,63.75,7.19c0,0-2.5-31.25-4.06-33.13s-18.44-9.37-20.94-9.69-16.56-3.74-20.62,0-6.25,4.07-7.81,8.13" transform="translate(-230.51 -1331.95)"/></g><path class="cls-10" d="M601.43,2774.64c-95.8,0-207.37-14.41-223.88-98.95-9.08-32.57-5.08-62.58,11.87-89.2,36.53-57.35,124-81,156.65-88,37.26-206.22,168.47-376.23,352.91-456.31,186.75-81.09,396.84-60,578.17,57.55a46,46,0,0,1,24.95-4.59,55.53,55.53,0,0,1,20.39,6.32,649.49,649.49,0,0,1,25.77-88.32c27.48-75.69,75.73-113.36,111.7-123.28,19.64-5.41,37-3.06,48.83,6.61,12.7,10.36,27.78,42.26,41.07,76,3.92-35.94,11.79-67.9,26.88-78.9a27.13,27.13,0,0,1,25.41-3.83c34.45,11.81,57,36.75,58,37.81a17.5,17.5,0,0,1,.2,23.11c-11.21,13-4.58,66.88,8.94,113.45,173.09,24.25,224.07,137.18,251.73,198.45,3.88,8.59,7.23,16,10.29,21.78,18.62,35,60.28,46.37,113,60.74,10.23,2.79,20.75,5.66,31.46,8.8,65.3,19.18,73.5,65,68.62,87.78-13.59,129.89-67.84,218.67-165.83,271.4-76.31,41.06-176.69,59.92-325.49,61.15H633.18C622.91,2774.45,612.27,2774.64,601.43,2774.64Zm530.2-746a547.34,547.34,0,0,0-218.71,45.66c-177,76.87-302,242.06-334.37,441.88A17.5,17.5,0,0,1,564,2530.61c-1.07.18-109.23,18.28-145.13,74.73-11.62,18.28-14.07,38.4-7.48,61.53.15.52.27,1,.37,1.58,9.5,50.79,83.68,74.65,220.64,70.72h1220.5c221.23-1.83,429.79-39.7,456.75-302.2a17.72,17.72,0,0,1,.42-2.4c.62-3,5.28-32.62-44.19-47.14-10.48-3.08-20.78-5.89-30.81-8.62-56.05-15.28-109-29.71-134.71-78.09-3.6-6.76-7.16-14.66-11.29-23.79-27.19-60.22-72.69-161-235.24-179.53a17.52,17.52,0,0,1-14.68-12c-5.67-17.63-30.12-98.89-13.9-142.64a115.82,115.82,0,0,0-29.74-18.14c-8.76,16.53-15.19,79.09-14.08,141.36a17.5,17.5,0,0,1-34.21,5.5c-19.77-63.68-48.84-138.29-60.6-147.88-1.51-1.24-7.1-2.82-17.4,0-26.28,7.25-65.15,38.25-88.21,101.78-.32.85-22,57.87-29.11,110.74a17.49,17.49,0,0,1-31.11,8.45c-2.78-3.47-12.94-13.76-22.16-14.6-2.39-.23-5.65,0-10.11,3.91a17.5,17.5,0,0,1-21.21,1.31C1362.14,2064.54,1246.38,2028.59,1131.63,2028.59Z" transform="translate(-230.51 -1331.95)"/><path class="cls-10" d="M561.27,2495.83l116.67,15a2.52,2.52,0,0,1,0,5l-116.67,15a17.64,17.64,0,1,1-4.5-35A18.81,18.81,0,0,1,561.27,2495.83Z" transform="translate(-230.51 -1331.95)"/><path class="cls-10" d="M1946.91,2119.62a17.51,17.51,0,0,1-17.11-13.91c-18-85.82-93.47-152.71-94.23-153.38a17.5,17.5,0,0,1,23.06-26.33c3.46,3,85,75.39,105.42,172.52a17.49,17.49,0,0,1-13.53,20.72A17.17,17.17,0,0,1,1946.91,2119.62Z" transform="translate(-230.51 -1331.95)"/><path class="cls-10" d="M1679.82,2153.32a170.19,170.19,0,0,1-24.38-1.84,17.5,17.5,0,0,1-15-16.53c-5.74-128.9,12-204.89,54.12-232.33a17.5,17.5,0,0,1,19.09,29.34c-20.17,13.12-42.84,56.3-38.82,186.25,20.52.86,37-3.57,49.16-13.15,19.7-15.52,22.53-40.2,22.55-40.45a17.5,17.5,0,0,1,34.85,3.28c-.15,1.61-4.07,39.72-35.75,64.66C1728.11,2146.37,1706,2153.32,1679.82,2153.32Z" transform="translate(-230.51 -1331.95)"/><path class="cls-10" d="M1858.69,2097.27,1795,2090l58-27.27a18.19,18.19,0,1,1,5.68,34.54Z" transform="translate(-230.51 -1331.95)"/><path class="cls-10" d="M1369.37,2515.84c24.58-5.86,49.44-9.64,74.47-12.51,12.52-1.4,25.08-2.55,37.69-3.26s25.27-1.2,38-1.24c25.42-.22,51.07,1.16,76.77,6.35a255.44,255.44,0,0,1,38.53,10.73,148.74,148.74,0,0,1,37.35,19.88,171.46,171.46,0,0,1,52.41,63.65,145.1,145.1,0,0,1,12.63,40.35,110.9,110.9,0,0,1-1.78,44,97.65,97.65,0,0,1-20.72,39.88c-9.76,11.38-21.64,20.12-33.94,26.87a177.16,177.16,0,0,1-38.16,15.39c-12.94,3.86-26,6.11-39,8.11a17.5,17.5,0,0,1-5.32-34.59l.62-.1c11.56-1.79,23.1-3.77,34-7.05a142.87,142.87,0,0,0,30.87-12.38c9.46-5.17,17.88-11.5,24.34-19a62.52,62.52,0,0,0,13.37-25.72c4.85-19,.9-40.92-8.53-60.61a135.2,135.2,0,0,0-41.5-50.37c-8.75-6.4-17.91-10.71-28.66-14.21a260,260,0,0,0-33.57-8.09c-23.17-4.21-47.19-7.22-71.41-10.12-48.56-5.24-98.07-7.67-148-10.9h0a2.53,2.53,0,0,1-.42-5Z" transform="translate(-230.51 -1331.95)"/><path class="cls-10" d="M1534.59,2531.61a17.51,17.51,0,0,1-17.48-16.79c-7.44-182-.07-379.76,0-381.73a17.5,17.5,0,1,1,35,1.32c-.08,2-7.39,198.43,0,379a17.52,17.52,0,0,1-16.78,18.2Z" transform="translate(-230.51 -1331.95)"/><path class="cls-10" d="M1420.44,2514.34c-.31-23.51-.74-46.17-1.14-68-3-157.57-5.08-271.41,43.83-336.29l27.94,21.07c-41.63,55.23-39.59,164-36.78,314.57q.62,32.78,1.15,68.15Z" transform="translate(-230.51 -1331.95)"/><path class="cls-10" d="M587.53,2402c-43,0-97.8-27-131.89-66.24-32.67-37.55-44.23-83.11-32.56-128.3a41,41,0,0,1,25.2-28.07,41.84,41.84,0,0,1,38.21,4.49c49.3,33.32,113,42.58,194.67,28.33a17.5,17.5,0,1,1,6,34.48c-89.8,15.67-163.92,4.29-220.28-33.82a6.8,6.8,0,0,0-6.23-.75,5.82,5.82,0,0,0-3.71,4.09c-11.14,43.18,7.49,76.35,25.09,96.58,32.58,37.45,83.57,57.12,112.13,53.85a17.5,17.5,0,1,1,4,34.77A94.66,94.66,0,0,1,587.53,2402Z" transform="translate(-230.51 -1331.95)"/><path class="cls-10" d="M2232.7,2360s-72.16,16.25-36.53,76.25,115.51,66.64,127.75,27.54-22.75-76-49-83.48" transform="translate(-230.51 -1331.95)"/><ellipse class="cls-10" cx="1748.46" cy="1069.3" rx="46.25" ry="66.25"/><path class="cls-10" d="M2291.72,2607.67c-2.21,2.22-3.73,3.5-5.58,5.09s-3.56,2.95-5.36,4.34q-5.4,4.2-11,7.89a183.13,183.13,0,0,1-23.42,13.13,159.06,159.06,0,0,1-51.31,14.37,141.2,141.2,0,0,1-52.19-4.84,167.71,167.71,0,0,1-45.95-21.89,3.78,3.78,0,0,1,3.76-6.53h0a156.49,156.49,0,0,0,45.24,14.34,122.92,122.92,0,0,0,45.71-2.08,134.66,134.66,0,0,0,41.21-18.05,154.44,154.44,0,0,0,17.88-13.63c2.81-2.47,5.51-5,8.06-7.68,1.29-1.31,2.53-2.65,3.71-4s2.5-2.87,3.05-3.68a17.62,17.62,0,1,1,29.2,19.74,16.74,16.74,0,0,1-2,2.51Z" transform="translate(-230.51 -1331.95)"/><g class="cls-11"><path class="cls-12" d="M647.1,2266l-55.8,118.3C536.2,2386.8,439,2330.85,436.1,2246A222,222,0,0,1,453,2266C536.25,2376.2,647.1,2266,647.1,2266Z" transform="translate(-230.51 -1331.95)"/></g><g class="cls-11"><path class="cls-12" d="M1550.2,2756.65H633c-34.85,1-66.85.3-95.3-2.5-44.3-4.3-80.1-13.6-105-29.35a.69.69,0,0,0-.2-.15c-18.7-11.8-31.25-27.3-36.5-47.1,0-.05-.05-.1-.05-.15-.5-1.85-.95-3.8-1.3-5.75-7.3-25.55-4.75-47.25,4-65.6a101.21,101.21,0,0,1,14.55-22.2l.15-.2,8.4-8.7.5-.5c-1.45,3.4-42.85,104.45,86.15,111.8,131.25,7.5,181.25-68.85,423.75-42.55s715.8,77.05,778.35-36.65C1710.45,2607.05,1801.7,2732.55,1550.2,2756.65Z" transform="translate(-230.51 -1331.95)"/></g><g class="cls-11"><path class="cls-12" d="M1659.55,2565.3c-18.7-11.3-43.25-22.3-74.9-32.8l-50.75-36.25.7-202.9S1538.2,2451.2,1659.55,2565.3Z" transform="translate(-230.51 -1331.95)"/></g><g class="cls-11"><path class="cls-12" d="M2327.1,2438.75C2302,2684,2128.65,2744.8,1914.65,2755h-.05c-20.2.95-40.8,1.5-61.65,1.65H1594.3c94,14.6,163.15-84.7,101.9-161.05,56.65,41.05,133.2,72.4,236.5,81.9,286.55,26.3,354.6-180.2,370.55-291.85C2334.65,2408.2,2327.1,2438.75,2327.1,2438.75Z" transform="translate(-230.51 -1331.95)"/></g><g class="cls-11"><path class="cls-12" d="M1673.77,1993.33s46.67-27.43,66.67,108.78l17.2-55.52-55.42-131.84-11.43,14.55" transform="translate(-230.51 -1331.95)"/></g><g class="cls-11"><path class="cls-12" d="M1851.48,1996.88s53.75,35,48.75,76.24L1929.6,2085s-12.5-87.73-82.5-124.38" transform="translate(-230.51 -1331.95)"/></g><g class="cls-11"><path class="cls-12" d="M1531.33,2360c-38.91,44.25-72.52,37-102.56-5v150.83l99.17-4.16" transform="translate(-230.51 -1331.95)"/></g><path class="cls-13" d="M2581.93,1733.7,2566.73,2652c-2.9-2.45-5.8-4.95-8.65-7.55-79.6-73.5-123.55-220.1-132.2-376.75-11.65-211.2,40.7-440.65,155.95-533.85Z" transform="translate(-230.51 -1331.95)"/><g class="cls-6"><path class="cls-7" d="M2581,1786.9c-156.35,159.5-179.35,587.45-65.25,806.95-141.75-214.25-118.1-711.1,66-860l.1-.1Z" transform="translate(-230.51 -1331.95)"/></g><path class="cls-14" d="M3360.58,1809.45V2610a145,145,0,0,1-145,145h-510a145,145,0,0,1-145-145V1809.45a145,145,0,0,1,145-145h510A145,145,0,0,1,3360.58,1809.45Z" transform="translate(-230.51 -1331.95)"/><g class="cls-6"><path class="cls-7" d="M3360.58,1809.45v35a145,145,0,0,0-145-145h-510a145,145,0,0,0-145,145v-35a145,145,0,0,1,145-145h510A145,145,0,0,1,3360.58,1809.45Z" transform="translate(-230.51 -1331.95)"/></g><path class="cls-14" d="M3740.58,2099.55V2468.2a51.26,51.26,0,0,1-51.25,51.25h-82.5a33.74,33.74,0,0,0-33.75,33.75v88.85a51.36,51.36,0,0,1-51.35,51.35h-187.6l-.05-5.4-13.4-978.4L3698,2011.1A113.09,113.09,0,0,1,3740.58,2099.55Z" transform="translate(-230.51 -1331.95)"/><g class="cls-6"><path class="cls-7" d="M3740.58,2099.55v44.85A113.09,113.09,0,0,0,3698,2056l-376.75-301-.6-45.35L3698,2011.1A113.09,113.09,0,0,1,3740.58,2099.55Z" transform="translate(-230.51 -1331.95)"/></g><path class="cls-10" d="M3215.58,2775h-510c-91,0-165-74-165-165V1809.45c0-91,74-165,165-165h510c91,0,165,74,165,165V2610C3380.58,2701,3306.56,2775,3215.58,2775Zm-510-1090.52a125.14,125.14,0,0,0-125,125V2610a125.14,125.14,0,0,0,125,125h510a125.14,125.14,0,0,0,125-125V1809.45a125.14,125.14,0,0,0-125-125Z" transform="translate(-230.51 -1331.95)"/><path class="cls-10" d="M3143.91,1952.78c-1.94-10.36-3.42-20.72-4.82-31.09l-1-7.77c-.34-2.57-.86-4.74-1.25-7.08a62.75,62.75,0,0,0-4.76-12.93c-8-16.29-23.26-27.5-39.33-30.47a37.7,37.7,0,0,0-6.06-.81,37.15,37.15,0,0,0-6.06-.11c-1.74,0-4.85.19-7.29.29l-7.78.36c-10.36.54-20.73.82-31.09,1.17-20.73.63-41.46.87-62.19.94l-31.09-.21-31.09-.69c-10.36-.37-20.73-.62-31.09-1.17l-7.78-.36c-2.44-.1-5.56-.3-7.29-.28a51.35,51.35,0,0,0-12.1.92c-16.06,3-31.34,14.16-39.31,30.43a62.09,62.09,0,0,0-4.76,12.92c-.39,2.34-.92,4.51-1.26,7.08l-1,7.77c-1.41,10.37-2.9,20.73-4.85,31.09-1.95-10.36-3.44-20.72-4.85-31.09l-1.05-7.77c-.3-2.62-.4-5.61-.58-8.46a73,73,0,0,1,2.18-17.3c5.58-23,24.11-43.3,48.12-51.18a64.11,64.11,0,0,1,9.14-2.43,64.87,64.87,0,0,1,9.4-1.34c3.44-.36,5.51-.33,8.25-.49l7.78-.37c10.36-.54,20.73-.8,31.09-1.16l31.09-.69,31.09-.21c20.73.07,41.46.31,62.19.94,10.36.35,20.73.63,31.09,1.17l7.78.36c2.74.17,4.81.13,8.25.51a80,80,0,0,1,18.52,3.75c24,7.89,42.52,28.18,48.1,51.16a72.83,72.83,0,0,1,2.19,17.29c-.19,2.84-.28,5.83-.58,8.45l-1.05,7.77C3147.33,1932.06,3145.85,1942.42,3143.91,1952.78Z" transform="translate(-230.51 -1331.95)"/><g class="cls-11"><path class="cls-12" d="M3143.91,1952.78v-40a65,65,0,0,0-65-65H2865.58a65,65,0,0,0-65,65v40" transform="translate(-230.51 -1331.95)"/></g><path class="cls-10" d="M3140.58,2415.7H2834.33a15,15,0,0,1,0-30h306.25a15,15,0,0,1,0,30Z" transform="translate(-230.51 -1331.95)"/><path class="cls-10" d="M3140.58,2522.78H2834.33a15,15,0,0,1,0-30h306.25a15,15,0,0,1,0,30Z" transform="translate(-230.51 -1331.95)"/><path class="cls-10" d="M3521.72,2713.42H3334.13a20,20,0,0,1,0-40h187.59a31.4,31.4,0,0,0,31.36-31.36V2553.2a53.81,53.81,0,0,1,53.75-53.75h82.5a31.29,31.29,0,0,0,31.25-31.25V2099.54a92.76,92.76,0,0,0-35-72.83l-377.37-301.48a20,20,0,1,1,25-31.25l377.37,301.48a132.55,132.55,0,0,1,50.06,104.08V2468.2a71.33,71.33,0,0,1-71.25,71.25h-82.5a13.76,13.76,0,0,0-13.75,13.75v88.86A71.44,71.44,0,0,1,3521.72,2713.42Z" transform="translate(-230.51 -1331.95)"/><path class="cls-10" d="M2566.72,2672a19.9,19.9,0,0,1-12.76-4.61c-93.62-77.67-151-255.7-149.65-464.62,1.07-170.35,44.85-386.85,164.46-484.08a20,20,0,0,1,27,29.53c-.4.37-.91.84-1.33,1.18-89.91,72.72-148.83,250.78-150.1,453.62-1.23,197.23,50.57,363.37,135.19,433.59a20,20,0,0,1-12.78,35.39Z" transform="translate(-230.51 -1331.95)"/><path class="cls-10" d="M2923.08,1679.45a15,15,0,0,1-15-15.27c2.43-137.62-15.75-225.76-15.93-226.64a15,15,0,1,1,29.35-6.19c.67,3.17,14.23,68.62,16.49,176.37,27-51.92,65.73-138.81,76.44-227.57a15,15,0,0,1,29.79,3.6c-17.71,146.74-104.84,283.1-108.54,288.83A15,15,0,0,1,2923.08,1679.45Z" transform="translate(-230.51 -1331.95)"/><circle class="cls-12" cx="2676.31" cy="102.5" r="35.63"/><circle class="cls-12" cx="2798.81" cy="35.63" r="35.63"/><g class="cls-11"><path class="cls-12" d="M3360.58,1847.8V2610a145,145,0,0,1-145,145h-510a145,145,0,0,1-145-145v-39.5C3095.73,2743.15,3346.63,2478,3360.58,1847.8Z" transform="translate(-230.51 -1331.95)"/></g><g class="cls-11"><path class="cls-12" d="M3740.58,2115.6v352.6a51.26,51.26,0,0,1-51.25,51.25h-82.5a33.74,33.74,0,0,0-33.75,33.75v88.85a51.36,51.36,0,0,1-51.35,51.35H3349.28c12.95-57.35,12.95-117.3,12.95-117.3V2339.45c1.7,126.65,63.35,123.35,68.35,128.35s85,0,85,0c233.35-51.7,217.7-363.35,217.7-363.35Z" transform="translate(-230.51 -1331.95)"/></g><g class="cls-11"><path class="cls-12" d="M2558.08,2174.45v470c-79.6-73.5-123.55-220.1-132.2-376.75,0,0,0,.1,0,.15C2526.28,2621.15,2558.08,2174.45,2558.08,2174.45Z" transform="translate(-230.51 -1331.95)"/></g><path class="cls-10" d="M711.74,2774.58,233,2772.5a2.5,2.5,0,0,1-.13-5l477.93-27.91a17.51,17.51,0,0,1,2,35C712.49,2774.57,712.09,2774.58,711.74,2774.58Z" transform="translate(-230.51 -1331.95)"/><path class="cls-10" d="M2821.78,2774.57l-329.7-2.07a2.5,2.5,0,0,1-.2-5l328.53-27.9a17.52,17.52,0,1,1,3,34.91A14.09,14.09,0,0,1,2821.78,2774.57Z" transform="translate(-230.51 -1331.95)"/><path class="cls-10" d="M1913.49,2739.59l477.93,27.91a2.5,2.5,0,0,1-.14,5l-478.74,2.08a17.51,17.51,0,0,1-.15-35C1912.74,2739.56,1913.14,2739.57,1913.49,2739.59Z" transform="translate(-230.51 -1331.95)"/><path class="cls-10" d="M3173.78,2739.61l266,27.89a2.51,2.51,0,0,1-.24,5l-267.48,2.07a17.53,17.53,0,0,1-.27-35.06A18.11,18.11,0,0,1,3173.78,2739.61Z" transform="translate(-230.51 -1331.95)"/><ellipse class="cls-8" cx="1768.66" cy="1061.03" rx="11.28" ry="25.11"/></svg>